<svg xmlns="http://www.w3.org/2000/svg" viewBox="0 0 480 300" role="img" aria-label="Unified communications and mobility"><defs><linearGradient id="bg" x1="0" y1="0" x2="1" y2="1"><stop offset="0" stop-color="#f6f7fb"/><stop offset="1" stop-color="#eceef6"/></linearGradient><radialGradient id="glow" cx="76%" cy="24%" r="62%"><stop offset="0" stop-color="#fc4a36" stop-opacity=".16"/><stop offset="1" stop-color="#fc4a36" stop-opacity="0"/></radialGradient><pattern id="dots" width="22" height="22" patternUnits="userSpaceOnUse"><circle cx="1.6" cy="1.6" r="1.6" fill="#2c2b4b" opacity=".07"/></pattern></defs><rect width="480" height="300" fill="url(#bg)"/><rect width="480" height="300" fill="url(#dots)"/><rect width="480" height="300" fill="url(#glow)"/>
<rect x="118" y="66" width="112" height="180" rx="16" fill="none" stroke="#2c2b4b" stroke-width="7"/>
<rect x="138" y="92" width="72" height="118" rx="4" fill="#2c2b4b" opacity=".1"/>
<circle cx="174" cy="226" r="7" fill="#2c2b4b"/>
<path d="M266 108h108a14 14 0 0114 14v70a14 14 0 01-14 14h-52l-28 26v-26h-28a14 14 0 01-14-14v-70a14 14 0 0114-14z"
      fill="none" stroke="#fc4a36" stroke-width="7" stroke-linejoin="round"/>
<g fill="#fc4a36"><circle cx="296" cy="157" r="7"/><circle cx="320" cy="157" r="7"/><circle cx="344" cy="157" r="7"/></g>
</svg>